#N canvas 111 77 788 495 12;
#X obj 103 40 r tiltX;
#X floatatom 178 37 5 0 0 0 - - - 0;
#X floatatom 101 173 5 0 0 0 - - - 0;
#X floatatom 628 22 5 0 0 0 - - - 0;
#X obj 553 25 r accY;
#X obj 552 60 + 1;
#X obj 552 84 / 2;
#X obj 102 75 + 1;
#X obj 102 99 / 2;
#X obj 96 135 * 100;
#X floatatom 546 128 5 0 0 0 - - - 0;
#X obj 279 179 lop~;
#X obj 324 229 *~;
#X obj 322 292 dac~;
#X obj 298 105 readsf~ 2;
#X obj 380 231 *~;
#X obj 337 67 tgl 19 0 empty empty empty 0 -10 0 12 #fcfcfc #000000 #000000 0 1;
#X msg 292 40 open piano.wav;
#X connect 0 0 1 0;
#X connect 0 0 7 0;
#X connect 2 0 11 1;
#X connect 4 0 3 0;
#X connect 4 0 5 0;
#X connect 5 0 6 0;
#X connect 6 0 10 0;
#X connect 7 0 8 0;
#X connect 8 0 9 0;
#X connect 9 0 2 0;
#X connect 10 0 12 1;
#X connect 10 0 15 1;
#X connect 11 0 12 0;
#X connect 12 0 13 0;
#X connect 14 0 11 0;
#X connect 14 1 15 0;
#X connect 15 0 13 1;
#X connect 16 0 14 0;
#X connect 17 0 14 0;
